<svg version="1" xmlns="http://www.w3.org/2000/svg" width="268" height="268" viewBox="0 0 201.000000 201.000000"><path d="M38.7 9.5C21.7 14.1 6.6 29.1 2 46c-4.2 15.1 2 30 14.7 35.6 6.3 2.8 18.4 2.3 26.4-.9 9.1-3.7 12.1-3.6 15.5.8 1.8 2.4 3.2 3.4 4.4 3 1.2-.4 5 2.8 13.4 11.1C82.8 102 88 107.6 88 108c0 .4-14.2 14.9-31.5 32.3C39.2 157.6 25 172 25 172.3c0 .8 10.1 10.7 10.9 10.7.4 0 1.7-.9 3-2.1l2.2-2.1 2.6 2.3c1.5 1.3 4.6 4.4 7 6.8l4.3 4.5 4.5-4.4 4.5-4.4-6.9-7.1-7-7 2.7-2.2 2.7-2.2 4.9 5 4.9 5 3.4-3.5c3.8-3.8 3.6-5.6-.9-9.3-6-4.8-6.7-3.7 13.6-23.9l18.7-18.7 3.1 2.9c1.6 1.6 10.2 10.1 18.9 18.8l16 16-5.1 5.1-5 5.1 3.9 3.8 3.8 3.7 4.9-5.1 4.8-5.1 2.5 2.6 2.5 2.5-6.7 6.5c-3.7 3.6-6.7 6.8-6.7 7.1 0 .2 1.9 2.2 4.2 4.4l4.3 4 6.7-6.7c7-7 7.7-7.1 11.3-2.5.8.9 2.4-.1 6.8-4.6l5.8-5.9-32.2-32.1-32.1-32.2 12-12.1c9.2-9.2 12.5-11.9 14-11.5 1.3.4 2.5-.3 4.1-2.5 3.5-4.8 5.6-5 14.5-1.8 15.5 5.7 28.7 3.9 36.8-5.1 19.5-21.8-5.1-64.3-38.6-66.5-23.8-1.6-36.4 20-26 44.6 2.9 7.1 2.4 10.1-2.6 13.7-1.9 1.4-2.7 2.8-2.4 4 .4 1.3-2.7 5-11.1 13.5C106 90.7 100.6 96 100.4 96c-.3 0-5.8-5.2-12.2-11.6-8.1-8-11.6-12.2-11.4-13.5.2-1.2-1.1-3.2-3.2-5.3-2-1.8-3.6-4-3.6-4.8 0-.8 1.3-5.2 3-9.8 6.3-18 1.9-33.2-11.4-39.8C56 8.4 45.7 7.6 38.7 9.5zm13.8 16.9c6.8 2.9 8.3 12 2.7 16.8-1.5 1.3-3.3 4.2-4 6.5-1.4 4.6-5.1 8.1-9.4 9-1.6.3-3.8 1.8-4.9 3.4-2.7 3.8-8.1 5.3-12.4 3.5-4.3-1.8-6.5-5.2-6.5-10 0-3.1.7-4.5 3.3-7 1.9-1.7 3.7-4.5 4.1-6.1 1-4.2 5.3-8.3 9.7-9.5 2.2-.6 4-1.8 4.4-2.9.6-1.9 5.8-5 8.3-5.1.7 0 2.8.6 4.7 1.4zm107.1 1.7c1.3 1.3 2.4 2.8 2.4 3.6 0 .7.3 1.2.8 1.1.4-.1 2.2.2 3.9.6 3.8.9 7.9 5.3 8.8 9.6.4 1.7 1.5 3.5 2.6 4 2.3 1.3 4.9 6.1 4.9 9 0 3-2.7 7.8-5.1 9-4.9 2.7-11.2 1.2-14.4-3.2-.8-1.3-2-2.4-2.5-2.4-.6-.1-1.7-.2-2.5-.3-2.8-.2-8.3-6-8.9-9.6-.4-1.9-1.7-4.2-3-5.2-6.6-5.3-5.7-15.2 1.8-18.4 3.2-1.3 8.6-.3 11.2 2.2z"/></svg>